<mxfile host="app.diagrams.net" modified="2022-04-29T11:05:33.480Z" agent="5.0 (Windows NT 10.0; Win64; x64) AppleWebKit/537.36 (KHTML, like Gecko) Chrome/100.0.4896.127 Safari/537.36 Edg/100.0.1185.50" etag="elZhTgeXBx7AXBdxKHNo" version="17.4.6" type="github">
  <diagram id="8E7PXjpa3VMx8SIQ4ySA" name="Page-1">
    <mxGraphModel dx="1038" dy="579" grid="1" gridSize="10" guides="1" tooltips="1" connect="1" arrows="1" fold="1" page="1" pageScale="1" pageWidth="850" pageHeight="1100" math="0" shadow="0">
      <root>
        <mxCell id="0" />
        <mxCell id="1" parent="0" />
        <mxCell id="KUtPdLYPmxlTnBwOSdaP-3" value="" style="edgeStyle=orthogonalEdgeStyle;rounded=0;orthogonalLoop=1;jettySize=auto;html=1;" edge="1" parent="1" source="KUtPdLYPmxlTnBwOSdaP-1" target="KUtPdLYPmxlTnBwOSdaP-2">
          <mxGeometry relative="1" as="geometry" />
        </mxCell>
        <mxCell id="KUtPdLYPmxlTnBwOSdaP-1" value="start" style="rounded=1;whiteSpace=wrap;html=1;" vertex="1" parent="1">
          <mxGeometry x="80" y="30" width="90" height="20" as="geometry" />
        </mxCell>
        <mxCell id="KUtPdLYPmxlTnBwOSdaP-5" value="" style="edgeStyle=orthogonalEdgeStyle;rounded=0;orthogonalLoop=1;jettySize=auto;html=1;" edge="1" parent="1" source="KUtPdLYPmxlTnBwOSdaP-2" target="KUtPdLYPmxlTnBwOSdaP-4">
          <mxGeometry relative="1" as="geometry" />
        </mxCell>
        <mxCell id="KUtPdLYPmxlTnBwOSdaP-2" value="IF pop attack range undefined" style="rhombus;whiteSpace=wrap;html=1;" vertex="1" parent="1">
          <mxGeometry x="85" y="90" width="80" height="80" as="geometry" />
        </mxCell>
        <mxCell id="KUtPdLYPmxlTnBwOSdaP-7" value="" style="edgeStyle=orthogonalEdgeStyle;rounded=0;orthogonalLoop=1;jettySize=auto;html=1;" edge="1" parent="1" source="KUtPdLYPmxlTnBwOSdaP-4" target="KUtPdLYPmxlTnBwOSdaP-6">
          <mxGeometry relative="1" as="geometry" />
        </mxCell>
        <mxCell id="KUtPdLYPmxlTnBwOSdaP-4" value="set the attack rng as sight rng" style="whiteSpace=wrap;html=1;" vertex="1" parent="1">
          <mxGeometry x="65" y="200" width="120" height="60" as="geometry" />
        </mxCell>
        <mxCell id="KUtPdLYPmxlTnBwOSdaP-9" style="edgeStyle=orthogonalEdgeStyle;rounded=0;orthogonalLoop=1;jettySize=auto;html=1;entryX=0.5;entryY=0;entryDx=0;entryDy=0;" edge="1" parent="1" source="KUtPdLYPmxlTnBwOSdaP-6" target="KUtPdLYPmxlTnBwOSdaP-8">
          <mxGeometry relative="1" as="geometry" />
        </mxCell>
        <mxCell id="KUtPdLYPmxlTnBwOSdaP-6" value="call&amp;nbsp;searchTarget" style="rounded=1;whiteSpace=wrap;html=1;fillColor=#f8cecc;gradientColor=#ea6b66;strokeColor=#b85450;" vertex="1" parent="1">
          <mxGeometry x="65" y="290" width="120" height="60" as="geometry" />
        </mxCell>
        <mxCell id="KUtPdLYPmxlTnBwOSdaP-11" value="yes" style="edgeStyle=orthogonalEdgeStyle;rounded=0;orthogonalLoop=1;jettySize=auto;html=1;" edge="1" parent="1" source="KUtPdLYPmxlTnBwOSdaP-8" target="KUtPdLYPmxlTnBwOSdaP-10">
          <mxGeometry relative="1" as="geometry" />
        </mxCell>
        <mxCell id="KUtPdLYPmxlTnBwOSdaP-15" value="no" style="edgeStyle=orthogonalEdgeStyle;rounded=0;orthogonalLoop=1;jettySize=auto;html=1;" edge="1" parent="1" source="KUtPdLYPmxlTnBwOSdaP-8" target="KUtPdLYPmxlTnBwOSdaP-14">
          <mxGeometry relative="1" as="geometry" />
        </mxCell>
        <mxCell id="KUtPdLYPmxlTnBwOSdaP-8" value="IF nearest sight rng is not empty" style="rhombus;whiteSpace=wrap;html=1;" vertex="1" parent="1">
          <mxGeometry x="240" y="30" width="80" height="80" as="geometry" />
        </mxCell>
        <mxCell id="KUtPdLYPmxlTnBwOSdaP-13" value="" style="edgeStyle=orthogonalEdgeStyle;rounded=0;orthogonalLoop=1;jettySize=auto;html=1;" edge="1" parent="1" source="KUtPdLYPmxlTnBwOSdaP-10" target="KUtPdLYPmxlTnBwOSdaP-12">
          <mxGeometry relative="1" as="geometry" />
        </mxCell>
        <mxCell id="KUtPdLYPmxlTnBwOSdaP-10" value="construct the identify target object" style="whiteSpace=wrap;html=1;" vertex="1" parent="1">
          <mxGeometry x="220" y="140" width="120" height="60" as="geometry" />
        </mxCell>
        <mxCell id="KUtPdLYPmxlTnBwOSdaP-20" value="" style="edgeStyle=orthogonalEdgeStyle;rounded=0;orthogonalLoop=1;jettySize=auto;html=1;" edge="1" parent="1" source="KUtPdLYPmxlTnBwOSdaP-12" target="KUtPdLYPmxlTnBwOSdaP-18">
          <mxGeometry relative="1" as="geometry" />
        </mxCell>
        <mxCell id="KUtPdLYPmxlTnBwOSdaP-12" value="call&amp;nbsp;identifyTarget" style="rounded=1;whiteSpace=wrap;html=1;fillColor=#f8cecc;gradientColor=#ea6b66;strokeColor=#b85450;" vertex="1" parent="1">
          <mxGeometry x="220" y="250" width="120" height="60" as="geometry" />
        </mxCell>
        <mxCell id="KUtPdLYPmxlTnBwOSdaP-17" value="" style="edgeStyle=orthogonalEdgeStyle;rounded=0;orthogonalLoop=1;jettySize=auto;html=1;" edge="1" parent="1" source="KUtPdLYPmxlTnBwOSdaP-14" target="KUtPdLYPmxlTnBwOSdaP-16">
          <mxGeometry relative="1" as="geometry" />
        </mxCell>
        <mxCell id="KUtPdLYPmxlTnBwOSdaP-14" value="ELSE&amp;nbsp;" style="rhombus;whiteSpace=wrap;html=1;" vertex="1" parent="1">
          <mxGeometry x="400" y="30" width="80" height="80" as="geometry" />
        </mxCell>
        <mxCell id="KUtPdLYPmxlTnBwOSdaP-19" value="" style="edgeStyle=orthogonalEdgeStyle;rounded=0;orthogonalLoop=1;jettySize=auto;html=1;" edge="1" parent="1" source="KUtPdLYPmxlTnBwOSdaP-16" target="KUtPdLYPmxlTnBwOSdaP-18">
          <mxGeometry relative="1" as="geometry" />
        </mxCell>
        <mxCell id="KUtPdLYPmxlTnBwOSdaP-16" value="set the nearest target empty array" style="whiteSpace=wrap;html=1;" vertex="1" parent="1">
          <mxGeometry x="380" y="150" width="120" height="60" as="geometry" />
        </mxCell>
        <mxCell id="KUtPdLYPmxlTnBwOSdaP-22" value="" style="edgeStyle=orthogonalEdgeStyle;rounded=0;orthogonalLoop=1;jettySize=auto;html=1;" edge="1" parent="1" source="KUtPdLYPmxlTnBwOSdaP-18" target="KUtPdLYPmxlTnBwOSdaP-21">
          <mxGeometry relative="1" as="geometry" />
        </mxCell>
        <mxCell id="KUtPdLYPmxlTnBwOSdaP-18" value="return the nearest target" style="whiteSpace=wrap;html=1;" vertex="1" parent="1">
          <mxGeometry x="380" y="250" width="120" height="60" as="geometry" />
        </mxCell>
        <mxCell id="KUtPdLYPmxlTnBwOSdaP-21" value="end" style="ellipse;whiteSpace=wrap;html=1;" vertex="1" parent="1">
          <mxGeometry x="390" y="340" width="100" height="40" as="geometry" />
        </mxCell>
      </root>
    </mxGraphModel>
  </diagram>
</mxfile>
